<svg width="15" height="15" viewBox="0 0 15 15" fill="none" xmlns="http://www.w3.org/2000/svg">
<path d="M6.66667 0.000162125H8V4.00016H9.33333V5.3335H8V8.00016H9.33333V9.3335H8V10.6668H10.6667V12.0002H9.33333V13.3335H8V14.6668H6.66667V13.3335H5.33333V12.0002H4V10.6668H6.66667V9.3335H5.33333V8.00016H6.66667V5.3335H5.33333V4.00016H6.66667V0.000162125ZM4 1.3335H5.33333V2.66683H4V1.3335ZM9.33333 1.3335H10.6667V2.66683H9.33333V1.3335ZM2.66667 2.66683H4V4.00016H2.66667V2.66683ZM10.6667 2.66683H12V4.00016H10.6667V2.66683ZM1.33333 4.00016H2.66667V9.3335H4V10.6668H2.66667V12.0002H1.33333V13.3335H0V5.3335H1.33333V4.00016ZM12 4.00016H13.3333V5.3335H14.6667V13.3335H13.3333V12.0002H12V10.6668H10.6667V9.3335H12V4.00016ZM4 5.3335H5.33333V8.00016H4V5.3335ZM9.33333 5.3335H10.6667V8.00016H9.33333V5.3335ZM4 13.3335H5.33333V14.6668H4V13.3335ZM9.33333 13.3335H10.6667V14.6668H9.33333V13.3335Z" fill="black"/>
</svg>
